<svg width="178" height="135" viewBox="0 0 178 135" fill="none" xmlns="http://www.w3.org/2000/svg" class="bt-connect-wallet-auth__img" data-v-4540aeaa=""><mask id="mask0_54_3161" maskUnits="userSpaceOnUse" x="45" y="49" width="86" height="86" style="mask-type: alpha;"><path fill-rule="evenodd" clip-rule="evenodd" d="M71.7448 50.145C70.1985 49.2533 68.2941 49.2538 66.7484 50.1464L49.2543 60.2486C47.2538 61.4038 46.0215 63.5385 46.0215 65.8486V107.173C46.0215 109.483 47.2538 111.618 49.2543 112.773L85.0456 133.441C87.04 134.593 89.4964 134.597 91.4945 133.452L127.371 112.894C129.387 111.738 130.628 109.59 130.622 107.267L130.522 65.948C130.516 63.6484 129.29 61.5248 127.301 60.3706L109.887 50.2656C108.345 49.3708 106.443 49.3651 104.895 50.2506V50.2506C101.553 52.1634 101.539 56.9786 104.869 58.9115L117.319 66.1354C119.307 67.2896 120.534 69.4132 120.539 71.7128L120.612 101.482C120.618 103.806 119.377 105.954 117.361 107.109L91.5137 121.92C89.5156 123.065 87.0592 123.061 85.0648 121.909L59.2504 107.002C57.2499 105.847 56.0176 103.712 56.0176 101.402V71.6193C56.0176 69.3092 57.2499 67.1745 59.2504 66.0193L71.7472 58.8029C75.0799 56.8784 75.0785 52.0675 71.7448 50.145V50.145Z" fill="#232323"></path><path d="M59.2504 107.002L59.1909 107.105L59.1909 107.105L59.2504 107.002ZM91.5137 121.92L91.4546 121.817L91.5137 121.92ZM85.0648 121.909L85.1244 121.806L85.0648 121.909ZM120.612 101.482L120.493 101.483L120.612 101.482ZM117.319 66.1354L117.259 66.2383L117.319 66.1354ZM120.539 71.7128L120.658 71.7125L120.539 71.7128ZM104.869 58.9115L104.81 59.0144L104.869 58.9115ZM109.887 50.2656L109.827 50.3685L109.887 50.2656ZM130.522 65.948L130.641 65.9477L130.522 65.948ZM127.301 60.3706L127.36 60.2677L127.301 60.3706ZM85.0456 133.441L84.9861 133.544L85.0456 133.441ZM91.4945 133.452L91.4354 133.349L91.4945 133.452ZM66.7484 50.1464L66.6889 50.0433L66.7484 50.1464ZM49.3138 60.3517L66.8079 50.2494L66.6889 50.0433L49.1948 60.1456L49.3138 60.3517ZM46.1405 107.173V65.8486H45.9025V107.173H46.1405ZM85.1052 133.338L49.3138 112.67L49.1948 112.876L84.9861 133.544L85.1052 133.338ZM127.312 112.79L91.4354 133.349L91.5537 133.555L127.43 112.997L127.312 112.79ZM130.403 65.9483L130.503 107.267L130.741 107.267L130.641 65.9477L130.403 65.9483ZM109.827 50.3685L127.241 60.4736L127.36 60.2677L109.946 50.1627L109.827 50.3685ZM104.81 59.0144L117.259 66.2383L117.378 66.0325L104.929 58.8086L104.81 59.0144ZM120.42 71.7131L120.493 101.483L120.731 101.482L120.658 71.7125L120.42 71.7131ZM117.301 107.005L91.4546 121.817L91.5729 122.023L117.42 107.212L117.301 107.005ZM85.1244 121.806L59.3099 106.899L59.1909 107.105L85.0053 122.012L85.1244 121.806ZM56.1366 101.402V71.6193H55.8986V101.402H56.1366ZM59.3099 66.1224L71.8067 58.9059L71.6877 58.6998L59.1909 65.9163L59.3099 66.1224ZM71.8067 58.9059C75.2187 56.9356 75.2173 52.0102 71.8042 50.0419L71.6853 50.2481C74.9397 52.1249 74.941 56.8211 71.6877 58.6998L71.8067 58.9059ZM56.1366 71.6193C56.1366 69.3517 57.3462 67.2563 59.3099 66.1224L59.1909 65.9163C57.1536 67.0927 55.8986 69.2667 55.8986 71.6193H56.1366ZM59.3099 106.899C57.3462 105.765 56.1366 103.67 56.1366 101.402H55.8986C55.8986 103.755 57.1536 105.929 59.1909 107.105L59.3099 106.899ZM91.4546 121.817C89.4932 122.941 87.082 122.937 85.1244 121.806L85.0053 122.012C87.0364 123.185 89.538 123.189 91.5729 122.023L91.4546 121.817ZM120.493 101.483C120.499 103.763 119.28 105.872 117.301 107.005L117.42 107.212C119.473 106.036 120.737 103.848 120.731 101.482L120.493 101.483ZM117.259 66.2383C119.211 67.3713 120.415 69.4558 120.42 71.7131L120.658 71.7125C120.653 69.3706 119.404 67.2079 117.378 66.0325L117.259 66.2383ZM104.836 50.1473C101.414 52.1057 101.4 57.0355 104.81 59.0144L104.929 58.8086C101.678 56.9217 101.692 52.2212 104.955 50.3539L104.836 50.1473ZM109.946 50.1627C108.368 49.2466 106.421 49.2407 104.836 50.1473L104.955 50.3539C106.465 49.4895 108.322 49.495 109.827 50.3685L109.946 50.1627ZM130.641 65.9477C130.635 63.6058 129.386 61.4431 127.36 60.2677L127.241 60.4736C129.193 61.6065 130.397 63.691 130.403 65.9483L130.641 65.9477ZM127.43 112.997C129.483 111.82 130.747 109.633 130.741 107.267L130.503 107.267C130.509 109.548 129.291 111.656 127.312 112.79L127.43 112.997ZM84.9861 133.544C87.0172 134.717 89.5188 134.721 91.5537 133.555L91.4354 133.349C89.474 134.473 87.0628 134.469 85.1052 133.338L84.9861 133.544ZM45.9025 107.173C45.9025 109.526 47.1575 111.699 49.1948 112.876L49.3138 112.67C47.3501 111.536 46.1405 109.441 46.1405 107.173H45.9025ZM66.8079 50.2494C68.3168 49.3781 70.1759 49.3776 71.6853 50.2481L71.8042 50.0419C70.2212 49.1289 68.2714 49.1295 66.6889 50.0433L66.8079 50.2494ZM49.1948 60.1456C47.1575 61.3221 45.9025 63.496 45.9025 65.8486H46.1405C46.1405 63.581 47.3501 61.4856 49.3138 60.3517L49.1948 60.1456Z" fill="white"></path></mask><g mask="url(#mask0_54_3161)"><path fill-rule="evenodd" clip-rule="evenodd" d="M71.7448 50.145C70.1985 49.2533 68.2941 49.2538 66.7484 50.1464L49.2543 60.2486C47.2538 61.4038 46.0215 63.5385 46.0215 65.8486V107.173C46.0215 109.483 47.2538 111.618 49.2543 112.773L85.0456 133.441C87.04 134.593 89.4964 134.597 91.4945 133.452L127.371 112.894C129.387 111.738 130.628 109.59 130.622 107.267L130.522 65.948C130.516 63.6484 129.29 61.5248 127.301 60.3706L109.887 50.2656C108.345 49.3708 106.443 49.3651 104.895 50.2506V50.2506C101.553 52.1634 101.539 56.9786 104.869 58.9115L117.319 66.1354C119.307 67.2896 120.534 69.4132 120.539 71.7128L120.612 101.482C120.618 103.806 119.377 105.954 117.361 107.109L91.5137 121.92C89.5156 123.065 87.0592 123.061 85.0648 121.909L59.2504 107.002C57.2499 105.847 56.0176 103.712 56.0176 101.402V71.6193C56.0176 69.3092 57.2499 67.1745 59.2504 66.0193L71.7472 58.8029C75.0799 56.8784 75.0785 52.0675 71.7448 50.145V50.145Z" fill="#232323"></path><path d="M59.2504 107.002L59.1909 107.105L59.1909 107.105L59.2504 107.002ZM91.5137 121.92L91.4546 121.817L91.5137 121.92ZM85.0648 121.909L85.1244 121.806L85.0648 121.909ZM120.612 101.482L120.493 101.483L120.612 101.482ZM117.319 66.1354L117.259 66.2383L117.319 66.1354ZM120.539 71.7128L120.658 71.7125L120.539 71.7128ZM104.869 58.9115L104.81 59.0144L104.869 58.9115ZM109.887 50.2656L109.827 50.3685L109.887 50.2656ZM130.522 65.948L130.641 65.9477L130.522 65.948ZM127.301 60.3706L127.36 60.2677L127.301 60.3706ZM85.0456 133.441L84.9861 133.544L85.0456 133.441ZM91.4945 133.452L91.4354 133.349L91.4945 133.452ZM66.7484 50.1464L66.6889 50.0433L66.7484 50.1464ZM49.3138 60.3517L66.8079 50.2494L66.6889 50.0433L49.1948 60.1456L49.3138 60.3517ZM46.1405 107.173V65.8486H45.9025V107.173H46.1405ZM85.1052 133.338L49.3138 112.67L49.1948 112.876L84.9861 133.544L85.1052 133.338ZM127.312 112.79L91.4354 133.349L91.5537 133.555L127.43 112.997L127.312 112.79ZM130.403 65.9483L130.503 107.267L130.741 107.267L130.641 65.9477L130.403 65.9483ZM109.827 50.3685L127.241 60.4736L127.36 60.2677L109.946 50.1627L109.827 50.3685ZM104.81 59.0144L117.259 66.2383L117.378 66.0325L104.929 58.8086L104.81 59.0144ZM120.42 71.7131L120.493 101.483L120.731 101.482L120.658 71.7125L120.42 71.7131ZM117.301 107.005L91.4546 121.817L91.5729 122.023L117.42 107.212L117.301 107.005ZM85.1244 121.806L59.3099 106.899L59.1909 107.105L85.0053 122.012L85.1244 121.806ZM56.1366 101.402V71.6193H55.8986V101.402H56.1366ZM59.3099 66.1224L71.8067 58.9059L71.6877 58.6998L59.1909 65.9163L59.3099 66.1224ZM71.8067 58.9059C75.2187 56.9356 75.2173 52.0102 71.8042 50.0419L71.6853 50.2481C74.9397 52.1249 74.941 56.8211 71.6877 58.6998L71.8067 58.9059ZM56.1366 71.6193C56.1366 69.3517 57.3462 67.2563 59.3099 66.1224L59.1909 65.9163C57.1536 67.0927 55.8986 69.2667 55.8986 71.6193H56.1366ZM59.3099 106.899C57.3462 105.765 56.1366 103.67 56.1366 101.402H55.8986C55.8986 103.755 57.1536 105.929 59.1909 107.105L59.3099 106.899ZM91.4546 121.817C89.4932 122.941 87.082 122.937 85.1244 121.806L85.0053 122.012C87.0364 123.185 89.538 123.189 91.5729 122.023L91.4546 121.817ZM120.493 101.483C120.499 103.763 119.28 105.872 117.301 107.005L117.42 107.212C119.473 106.036 120.737 103.848 120.731 101.482L120.493 101.483ZM117.259 66.2383C119.211 67.3713 120.415 69.4558 120.42 71.7131L120.658 71.7125C120.653 69.3706 119.404 67.2079 117.378 66.0325L117.259 66.2383ZM104.836 50.1473C101.414 52.1057 101.4 57.0355 104.81 59.0144L104.929 58.8086C101.678 56.9217 101.692 52.2212 104.955 50.3539L104.836 50.1473ZM109.946 50.1627C108.368 49.2466 106.421 49.2407 104.836 50.1473L104.955 50.3539C106.465 49.4895 108.322 49.495 109.827 50.3685L109.946 50.1627ZM130.641 65.9477C130.635 63.6058 129.386 61.4431 127.36 60.2677L127.241 60.4736C129.193 61.6065 130.397 63.691 130.403 65.9483L130.641 65.9477ZM127.43 112.997C129.483 111.82 130.747 109.633 130.741 107.267L130.503 107.267C130.509 109.548 129.291 111.656 127.312 112.79L127.43 112.997ZM84.9861 133.544C87.0172 134.717 89.5188 134.721 91.5537 133.555L91.4354 133.349C89.474 134.473 87.0628 134.469 85.1052 133.338L84.9861 133.544ZM45.9025 107.173C45.9025 109.526 47.1575 111.699 49.1948 112.876L49.3138 112.67C47.3501 111.536 46.1405 109.441 46.1405 107.173H45.9025ZM66.8079 50.2494C68.3168 49.3781 70.1759 49.3776 71.6853 50.2481L71.8042 50.0419C70.2212 49.1289 68.2714 49.1295 66.6889 50.0433L66.8079 50.2494ZM49.1948 60.1456C47.1575 61.3221 45.9025 63.496 45.9025 65.8486H46.1405C46.1405 63.581 47.3501 61.4856 49.3138 60.3517L49.1948 60.1456Z" fill="#232323"></path></g><path d="M108.699 42.8132L91.5917 52.644C89.59 53.7943 87.1269 53.7902 85.1291 52.6332L68.0541 42.7452C66.0575 41.5889 64.8281 39.4564 64.8281 37.1492V17.3535C64.8281 15.0462 66.0575 12.9138 68.0541 11.7575L85.1088 1.88121C87.1175 0.717969 89.5956 0.720585 91.6018 1.88807L108.681 11.827C110.666 12.9822 111.89 15.1037 111.895 17.4004L111.944 37.1908C111.949 39.5113 110.711 41.657 108.699 42.8132Z" fill="#232323" stroke="#232323" stroke-width="0.238003"></path><path d="M5.08984 87.5703L51.0244 87.5703" stroke="#232323" stroke-width="9.99612" stroke-linecap="round"></path><path d="M126.709 87.5703L172.644 87.5703" stroke="#232323" stroke-width="9.99612" stroke-linecap="round"></path><path d="M15.7832 129.555L52.4168 108.277" stroke="#232323" stroke-width="9.99612" stroke-linecap="round"></path><path d="M160.719 129.555L124.085 108.277" stroke="#232323" stroke-width="9.99612" stroke-linecap="round"></path><path d="M14.3682 45.9219L51.0017 67.1994" stroke="#232323" stroke-width="9.99612" stroke-linecap="round"></path><path d="M162.191 45.9219L125.558 67.1994" stroke="#232323" stroke-width="9.99612" stroke-linecap="round"></path></svg>